<svg width="2609" height="2089" xmlns="http://www.w3.org/2000/svg" xmlns:xlink="http://www.w3.org/1999/xlink" overflow="hidden"><defs><clipPath id="clip0"><rect x="851" y="191" width="2609" height="2089"/></clipPath><linearGradient x1="2155.5" y1="193.5" x2="2155.5" y2="2277.37" gradientUnits="userSpaceOnUse" spreadMethod="reflect" id="fill1"><stop offset="0" stop-color="#FAFAFA"/><stop offset="0.74" stop-color="#D7D7D7"/><stop offset="0.83" stop-color="#D7D7D7"/><stop offset="1" stop-color="#E4E4E4"/></linearGradient></defs><g clip-path="url(#clip0)" transform="translate(-851 -191)"><path d="M853.5 249.556C853.5 218.597 878.597 193.5 909.556 193.5L3401.44 193.5C3432.4 193.5 3457.5 218.597 3457.5 249.556L3457.5 2221.31C3457.5 2252.27 3432.4 2277.37 3401.44 2277.37L909.556 2277.37C878.597 2277.37 853.5 2252.27 853.5 2221.31Z" stroke="#2F528F" stroke-width="4.58333" stroke-miterlimit="8" fill="url(#fill1)" fill-rule="evenodd"/><text font-family="Aharoni,Aharoni_MSFontService,sans-serif" font-weight="700" font-size="330" transform="matrix(1 0 0 1 1349.19 1332)">StocXTune</text><path d="M1611 517.668C1611 460.966 1656.97 415 1713.67 415L2534.33 415C2591.03 415 2637 460.966 2637 517.668L2637 928.331C2637 985.034 2591.03 1031 2534.33 1031L1713.67 1031C1656.97 1031 1611 985.034 1611 928.331Z" stroke="#000000" stroke-width="27.5" stroke-miterlimit="8" fill="none" fill-rule="evenodd"/><path d="M1651 525.831C1651 482.846 1685.85 448 1728.83 448L2519.17 448C2562.15 448 2597 482.846 2597 525.831L2597 920.169C2597 963.154 2562.15 998 2519.17 998L1728.83 998C1685.85 998 1651 963.154 1651 920.169Z" fill-rule="evenodd"/><path d="M2571.5 551.5C2553.66 581.295 2535.82 611.09 2507.94 615.674 2480.06 620.258 2426.53 566.779 2404.23 579.003 2381.92 591.227 2406.46 669.661 2374.12 689.015 2341.78 708.37 2252.01 673.736 2210.19 695.127 2168.37 716.519 2154.43 811.761 2123.21 817.363 2091.98 822.966 2052.95 708.879 2022.85 728.742 1992.74 748.606 1973.22 922.792 1942.55 936.543 1911.89 950.295 1838.85 811.252 1838.85 811.252L1838.85 811.252 1651.5 829.587" stroke="#07ECE7" stroke-width="68.75" stroke-miterlimit="8" fill="none" fill-rule="evenodd"/><text font-family="Berlin Sans FB Demi,Berlin Sans FB Demi_MSFontService,sans-serif" font-weight="600" font-size="83" transform="matrix(1 0 0 1 1539.14 1507)">Research stocks at StocXtune.com</text></g></svg>